<svg width="19" height="19" viewBox="0 0 19 19" fill="none" xmlns="http://www.w3.org/2000/svg">
<g clip-path="url(#clip0_282_3489)">
<mask id="mask0_282_3489" style="mask-type:luminance" maskUnits="userSpaceOnUse" x="0" y="0" width="19" height="19">
<path d="M19 0H0V19H19V0Z" fill="white"/>
</mask>
<g mask="url(#mask0_282_3489)">
<path d="M19 9.55777C19 14.2991 15.5214 18.2297 10.9804 18.943V12.3223H13.1884L13.6087 9.58311H10.9804V7.80584C10.9804 7.05612 11.3477 6.32621 12.5241 6.32621H13.7188V3.99396C13.7188 3.99396 12.6342 3.80871 11.5979 3.80871C9.43349 3.80871 8.01959 5.12049 8.01959 7.49471V9.58233H5.61372V12.3215H8.01959V18.9422C3.47937 18.2281 0 14.2983 0 9.55777C0 4.3114 4.25362 0.0577899 9.49999 0.0577899C14.7464 0.0577899 19 4.31062 19 9.55777Z" fill="white"/>
</g>
</g>
<defs>
<clipPath id="clip0_282_3489">
<rect width="18.5619" height="18.5619" fill="white" transform="scale(1.0236)"/>
</clipPath>
</defs>
</svg>
