<svg width="19" height="19" viewBox="0 0 19 19" fill="none" xmlns="http://www.w3.org/2000/svg">
<g clip-path="url(#clip0_282_3495)">
<mask id="mask0_282_3495" style="mask-type:luminance" maskUnits="userSpaceOnUse" x="0" y="0" width="19" height="19">
<path d="M19 0H0V19H19V0Z" fill="white"/>
</mask>
<g mask="url(#mask0_282_3495)">
<path d="M9.49999 1.71158C12.0365 1.71158 12.3373 1.72108 13.3388 1.767C14.3743 1.8145 15.4406 2.05041 16.1951 2.80487C16.9567 3.56646 17.1855 4.62252 17.233 5.66122C17.2789 6.66265 17.2884 6.96349 17.2884 9.49999C17.2884 12.0365 17.2789 12.3373 17.233 13.3388C17.1863 14.3687 16.9448 15.4454 16.1951 16.1951C15.4335 16.9567 14.3782 17.1855 13.3388 17.233C12.3373 17.2789 12.0365 17.2884 9.49999 17.2884C6.96349 17.2884 6.66265 17.2789 5.66122 17.233C4.63915 17.1863 3.54825 16.9393 2.80487 16.1951C2.04725 15.4375 1.8145 14.3711 1.767 13.3388C1.72108 12.3373 1.71158 12.0365 1.71158 9.49999C1.71158 6.96349 1.72108 6.66265 1.767 5.66122C1.81371 4.63522 2.05754 3.55221 2.80487 2.80487C3.56487 2.04487 4.6249 1.8145 5.66122 1.767C6.66265 1.72108 6.96349 1.71158 9.49999 1.71158ZM9.49999 0C6.91996 0 6.59615 0.0110833 5.58284 0.0569999C4.11428 0.124291 2.65604 0.53279 1.59441 1.59441C0.528834 2.66 0.124291 4.11509 0.0569999 5.58284C0.0110833 6.59615 0 6.91996 0 9.49999C0 12.08 0.0110833 12.4038 0.0569999 13.4171C0.124291 14.8841 0.534375 16.3463 1.59441 17.4056C2.65921 18.4704 4.11665 18.8757 5.58284 18.943C6.59615 18.9889 6.91996 19 9.49999 19C12.08 19 12.4038 18.9889 13.4171 18.943C14.8849 18.8757 16.3447 18.4664 17.4056 17.4056C18.472 16.3392 18.8757 14.8849 18.943 13.4171C18.9889 12.4038 19 12.08 19 9.49999C19 6.91996 18.9889 6.59615 18.943 5.58284C18.8757 4.11428 18.4664 2.65525 17.4056 1.59441C16.3424 0.531209 14.881 0.1235 13.4171 0.0569999C12.4038 0.0110833 12.08 0 9.49999 0Z" fill="white"/>
<path d="M9.5 4.62175C6.80597 4.62175 4.62175 6.80597 4.62175 9.5C4.62175 12.194 6.80597 14.3782 9.5 14.3782C12.194 14.3782 14.3782 12.194 14.3782 9.5C14.3782 6.80597 12.194 4.62175 9.5 4.62175ZM9.5 12.6667C7.75122 12.6667 6.33335 11.2488 6.33335 9.5C6.33335 7.75122 7.75122 6.33335 9.5 6.33335C11.2488 6.33335 12.6667 7.75122 12.6667 9.5C12.6667 11.2488 11.2488 12.6667 9.5 12.6667Z" fill="white"/>
<path d="M14.5714 5.5686C15.201 5.5686 15.7114 5.05819 15.7114 4.4286C15.7114 3.79896 15.201 3.28859 14.5714 3.28859C13.9418 3.28859 13.4314 3.79896 13.4314 4.4286C13.4314 5.05819 13.9418 5.5686 14.5714 5.5686Z" fill="white"/>
</g>
</g>
<defs>
<clipPath id="clip0_282_3495">
<rect width="18.5619" height="18.5619" fill="white" transform="scale(1.0236)"/>
</clipPath>
</defs>
</svg>
