<svg width="80" height="36" viewBox="0 0 80 36" fill="none" xmlns="http://www.w3.org/2000/svg">
<path d="M60.1695 24.6492C60.1697 25.8574 60.1697 27.0171 60.1697 28.2136C59.1388 28.2136 58.1239 28.2136 57.0796 28.2136C57.0796 25.536 57.0796 22.8785 57.0796 20.1529C57.2524 20.1529 57.4245 20.1529 57.5965 20.1529C59.7972 20.1526 61.998 20.1558 64.1986 20.1499C64.7951 20.1483 65.0772 19.8901 65.1067 19.3621C65.1401 18.7622 64.8407 18.4605 64.1682 18.4592C61.9838 18.455 59.7994 18.461 57.615 18.463C57.4408 18.4632 57.2666 18.4631 57.0706 18.4631C57.0706 17.3857 57.0706 16.3607 57.0706 15.3154C57.1239 15.299 57.1832 15.2646 57.2423 15.2648C59.5895 15.2727 61.9367 15.2815 64.2839 15.2972C64.5765 15.2992 64.8718 15.3212 65.1608 15.3664C67.4657 15.7272 68.657 17.4681 68.253 19.8465C68.0136 21.2559 67.2261 22.214 65.936 22.7807C65.7887 22.8454 65.6396 22.9057 65.4308 22.9935C66.5206 24.7412 67.5935 26.4618 68.7077 28.2488C67.8329 28.2488 67.0017 28.1626 66.1962 28.2699C65.1196 28.4134 64.5171 28.0092 64.043 27.0531C63.4502 25.8575 62.6914 24.7453 62.0238 23.5858C61.8589 23.2993 61.6839 23.1655 61.336 23.1837C60.2533 23.2401 60.1391 22.9204 60.1679 24.3552C60.1695 24.437 60.1689 24.5188 60.1695 24.6492Z" fill="white"/>
<path d="M47.7002 15.2772C48.1343 15.2122 48.1075 15.4746 48.1073 15.7298C48.1056 18.492 48.1065 21.2541 48.1075 24.0162C48.1075 24.1959 48.1117 24.3757 48.1172 24.5553C48.1295 24.9561 48.3348 25.1435 48.7367 25.1424C49.8449 25.1393 50.9532 25.1389 52.0613 25.1513C52.4141 25.1552 52.5679 24.9809 52.5944 24.6566C52.6064 24.5104 52.6017 24.3627 52.6013 24.2157C52.5938 21.4046 52.5857 18.5935 52.5778 15.7824C52.5774 15.6233 52.5778 15.4642 52.5778 15.2805C53.6642 15.2805 54.6997 15.2805 55.7607 15.2805C55.77 15.4186 55.7862 15.5459 55.7861 15.6731C55.7846 18.6804 55.785 21.6877 55.7743 24.695C55.7728 25.1184 55.736 25.5442 55.6816 25.9644C55.4907 27.4384 54.8249 28.1954 53.3488 28.2444C51.2861 28.3129 49.2142 28.2719 47.153 28.1566C45.8354 28.0829 45.2257 27.3991 44.9994 26.0843C44.9221 25.6353 44.8718 25.1754 44.8702 24.7203C44.8592 21.5994 44.8644 18.4784 44.8644 15.2773C45.7796 15.2773 46.7175 15.2773 47.7002 15.2772Z" fill="white"/>
<path d="M76.8117 18.2692C76.8117 17.2568 76.8117 16.2935 76.8117 15.295C77.8628 15.295 78.8967 15.295 79.9668 15.295C79.9778 15.4356 79.9982 15.5762 79.9983 15.7169C79.9988 18.7236 80.0055 21.7304 79.9883 24.7371C79.985 25.3056 79.9261 25.8815 79.8203 26.4402C79.6346 27.4208 79.0553 28.1123 78.0345 28.1714C76.2327 28.2758 74.4253 28.293 72.6199 28.3154C72.1023 28.3219 71.5781 28.2518 71.0663 28.163C70.0016 27.9784 69.445 27.4424 69.2729 26.3785C69.1639 25.7046 69.1174 25.0143 69.1121 24.3307C69.0889 21.3569 69.091 18.3828 69.0849 15.4088C69.0848 15.3778 69.0988 15.3468 69.1142 15.2824C70.1542 15.2824 71.2019 15.2824 72.2946 15.2824C72.2946 15.4658 72.2946 15.6247 72.2946 15.7837C72.2945 18.5943 72.2936 21.405 72.2947 24.2157C72.2951 25.1103 72.338 25.151 73.2284 25.1507C74.206 25.1503 75.1837 25.1526 76.1613 25.1479C76.7381 25.1451 76.8164 25.0733 76.8172 24.4952C76.8198 22.4363 76.8142 20.3773 76.8117 18.2692Z" fill="white"/>
<path d="M30.0784 16.6454C31.5634 14.3163 33.6401 13.0106 36.3595 12.7879C38.1332 12.6426 39.8481 12.8917 41.4075 13.804C41.9755 14.1364 42.4788 14.5801 43.0682 15.0146C42.2309 15.9121 41.4681 16.7299 40.6693 17.5863C39.456 16.4392 38.0424 15.9467 36.4113 16.1041C35.5062 16.1915 34.71 16.5327 34.0252 17.1261C32.5589 18.3965 32.0749 20.7772 32.9131 22.6679C33.4418 23.8605 34.3087 24.7091 35.5705 25.1004C36.7911 25.479 38.0159 25.3411 39.2779 25.0369C39.2779 26.2044 39.2779 27.3235 39.2779 28.4474C36.8457 29.4071 32.8682 28.2842 30.9272 26.0825C28.749 23.6118 28.3914 19.7387 30.0784 16.6454Z" fill="white"/>
<path d="M51.8514 9.67686C51.9571 9.66786 52.0627 9.65887 52.2407 9.67929C52.4749 9.71729 52.637 9.73613 52.7986 9.73286C54.2124 9.70421 55.6261 9.64896 57.0399 9.64718C58.2255 9.64569 59.4112 9.70426 60.5968 9.74029C60.6614 9.74226 60.725 9.78148 60.9216 9.84858C60.7077 9.89478 60.6363 9.91969 60.5637 9.92446C59.5289 9.99245 58.4871 10.0036 57.4606 10.1356C55.6658 10.3664 53.8631 10.5889 52.0954 10.9645C49.5811 11.4988 47.1682 12.3778 44.8479 13.4954C44.5003 13.6629 44.1668 13.7888 43.7945 13.5913C43.7945 13.5913 43.8119 13.5824 43.8032 13.555C43.7189 13.4455 43.6527 13.3514 43.5662 13.2832C42.5592 12.4881 41.4133 11.9584 40.1969 11.5929C39.7343 11.4539 39.2326 11.4462 38.7487 11.3786C38.7024 11.3788 38.6561 11.3789 38.5638 11.3319C37.7171 11.0226 36.9052 11.2292 36.0983 11.2321C36.068 11.2322 36.0379 11.3002 36.0077 11.3366C35.9622 11.3506 35.9167 11.3646 35.8038 11.3535C35.2278 11.2949 34.7192 11.2613 34.2107 11.2277C34.2107 11.2277 34.2235 11.2242 34.2182 11.1956C33.8446 10.5721 33.438 10.0178 32.7417 9.77036C32.7417 9.77036 32.7566 9.73969 32.7493 9.72083C32.3513 9.42996 31.9606 9.15795 31.5698 8.88593C31.5698 8.88593 31.5883 8.86321 31.5772 8.84103C30.8081 8.42569 30.0872 7.90734 29.2836 7.66713C27.8909 7.25081 26.4524 6.97842 25.0219 6.70514C24.4939 6.60427 23.934 6.67145 23.3887 6.66199C23.3434 6.66449 23.298 6.66699 23.2059 6.62466C23.0697 6.55225 22.9809 6.5019 22.8912 6.50042C20.5352 6.46154 18.1939 6.58223 15.8933 7.1498C15.7746 7.17909 15.6424 7.15356 15.5165 7.15356C15.5864 7.00021 15.6618 6.93401 15.7487 6.9105C17.3891 6.46654 19.0316 6.03085 20.672 5.58681C22.5169 5.08738 24.4091 4.98032 26.3034 4.93641C27.3568 4.91199 28.413 4.98048 29.4671 5.02513C31.4587 5.10949 33.3807 5.54617 35.2552 6.21023C35.677 6.35965 36.0967 6.51481 36.5174 6.66732C36.5174 6.66732 36.5064 6.67582 36.5154 6.70348C37.0127 7.03477 37.501 7.33839 37.9893 7.64202C37.9893 7.64202 37.9758 7.66765 37.9861 7.68191C38.0302 7.70666 38.0638 7.71714 38.0975 7.72762C38.0975 7.72762 38.0834 7.75689 38.0893 7.77794C38.2232 7.87806 38.3512 7.95712 38.4793 8.03619C38.4793 8.03619 38.466 8.04999 38.4758 8.06899C38.519 8.09979 38.5525 8.11158 38.5859 8.12337C38.5859 8.12337 38.5462 8.13489 38.5647 8.16341C39.2436 8.98024 40.1683 9.28618 41.1084 9.52541C41.6836 9.67182 42.2846 9.74456 42.8784 9.7835C43.778 9.8425 44.6815 9.84327 45.5833 9.86878C46.0794 9.86292 46.5755 9.85707 47.1506 9.87981C48.6975 9.8821 50.1654 9.85796 51.6331 9.82319C51.707 9.82144 51.7787 9.72774 51.8514 9.67686Z" fill="white"/>
<path d="M27.0009 18.2748C26.3328 18.2751 25.7124 18.2962 25.0941 18.268C24.7232 18.2511 24.6264 18.3717 24.6286 18.7407C24.6465 21.6674 24.6428 24.5942 24.6448 27.521C24.6454 28.2663 24.6438 28.2663 23.8953 28.2653C23.1616 28.2643 22.427 28.2404 21.6946 28.271C21.2659 28.2889 21.1324 28.1513 21.1348 27.7175C21.1513 24.7418 21.1437 21.7659 21.1438 18.79C21.1439 18.6445 21.1438 18.4989 21.1438 18.2702C20.4374 18.2702 19.7601 18.2697 19.0827 18.2703C17.8147 18.2715 17.8139 18.2718 17.8094 16.9934C17.8074 16.4069 17.8091 15.8203 17.8091 15.1829C18.0214 15.1714 18.1945 15.1539 18.3676 15.1538C21.4002 15.1528 24.4328 15.1631 27.4652 15.1448C27.9383 15.142 28.0965 15.285 28.0705 15.7573C28.0346 16.4094 28.0268 17.0672 28.0711 17.7181C28.1036 18.1959 27.9193 18.331 27.4893 18.2779C27.3448 18.26 27.1962 18.2749 27.0009 18.2748Z" fill="white"/>
<path d="M37.3926 35.7124C37.2484 35.7143 37.144 35.7143 36.9173 35.7143C37.0934 35.6018 37.1636 35.5434 37.2439 35.5077C39.2443 34.6176 40.4144 33.0382 40.5394 30.8964C40.6855 28.3946 40.5736 25.8775 40.5736 23.3236C39.1425 23.3236 37.6998 23.3236 36.221 23.3236C36.221 22.312 36.221 21.3427 36.221 20.3441C38.6456 20.3441 41.0811 20.3441 43.5742 20.3441C43.5742 20.8116 43.5744 21.2788 43.5742 21.7461C43.5731 24.0005 43.533 26.2557 43.5796 28.5092C43.6569 32.2481 41.32 35.2423 37.3926 35.7124Z" fill="white"/>
<path d="M10.5688 15.1389C12.345 15.1396 14.0725 15.149 15.7997 15.1345C16.1922 15.1312 16.3669 15.2369 16.33 15.6604C16.296 16.0495 16.3114 16.4448 16.3312 16.8361C16.3476 17.1593 16.2123 17.2709 15.9015 17.2666C14.8751 17.2525 13.8483 17.2672 12.8222 17.2442C12.0349 17.2266 11.5737 17.3456 11.5297 18.2348C11.5244 18.3413 11.3104 18.5238 11.1913 18.5253C9.51312 18.5469 7.83462 18.541 6.15622 18.5479C5.8768 18.5491 5.80697 18.408 5.78431 18.1536C5.72748 17.5158 5.49031 17.2835 4.84959 17.272C3.77441 17.2527 2.69832 17.2453 1.62343 17.2695C1.18518 17.2794 1.04336 17.1249 1.08127 16.7005C1.11313 16.3438 1.11329 15.9794 1.0793 15.6231C1.04132 15.2251 1.19173 15.1275 1.57363 15.1294C4.55566 15.1442 7.53778 15.1383 10.5688 15.1389Z" fill="white"/>
<path d="M37.0406 5.4526C35.6042 3.33417 36.5759 0.580033 38.9037 0.0818502C40.5183 -0.263691 42.0072 0.505705 42.6066 1.99532C43.2196 3.51877 42.6804 5.42019 41.4043 6.23536C40.0333 7.11114 38.3269 6.86536 37.1907 5.6281C37.1466 5.58003 37.1054 5.52919 37.0406 5.4526Z" fill="white"/>
<path d="M36.0984 32.5762C36.0984 32.5762 36.0686 32.6017 36.0102 32.5991C35.7998 32.6473 35.6468 32.6953 35.496 32.7493C34.2489 33.1962 33.0166 33.6917 31.7506 34.0755C30.8738 34.3413 29.9551 34.482 29.047 34.6273C27.837 34.8209 26.6193 34.9669 25.4035 35.1218C25.3569 35.1277 25.295 35.0132 25.2403 34.9548C25.66 34.8002 26.0797 34.6457 26.5679 34.4778C27.7715 34.2166 28.7727 33.6746 29.7339 33.0453C29.7435 33.0391 29.7412 33.0146 29.7445 32.9987C29.7445 32.9987 29.7662 32.9722 29.8207 32.9734C30.3113 32.6718 30.7475 32.3691 31.1836 32.0664C31.1836 32.0664 31.1975 32.0907 31.2239 32.0875C31.499 31.8637 31.7475 31.643 31.9961 31.4224C31.9961 31.4224 31.9938 31.4158 32.0268 31.4144C32.0961 31.3711 32.1325 31.3292 32.1689 31.2873C32.1689 31.2873 32.1725 31.2995 32.2003 31.2942C32.3782 31.1354 32.5284 30.9819 32.6786 30.8283C32.6786 30.8283 32.6774 30.8269 32.7088 30.824C32.7861 30.7608 32.832 30.7006 32.878 30.6403C32.878 30.6403 32.8758 30.6327 32.9094 30.6299C32.9736 30.5818 33.0043 30.5366 33.0349 30.4914C33.0349 30.4914 33.0408 30.5028 33.0681 30.5009C33.1528 30.4141 33.2102 30.3292 33.2676 30.2444C33.2676 30.2444 33.2647 30.2386 33.2978 30.2358C33.3579 30.187 33.3848 30.1408 33.4118 30.0947C33.421 30.1109 33.4302 30.127 33.4577 30.1201C33.5025 30.0451 33.529 29.9932 33.5556 29.9413C33.5556 29.9413 33.5579 29.9439 33.5916 29.9379C33.847 29.9035 34.0781 29.8202 34.2888 29.8565C35.0175 29.9818 35.7261 30.274 36.4867 30.0766C36.5938 30.0765 36.7008 30.0764 36.8624 30.1208C37.4889 30.1536 38.0615 30.1249 38.6328 30.1416C38.7851 30.1461 38.9333 30.2897 39.0834 30.3695C39.0834 30.3695 39.0703 30.3541 39.0388 30.3626C38.9238 30.4961 38.8402 30.6211 38.7567 30.7461C38.7567 30.7461 38.7475 30.7333 38.7219 30.7367C38.643 30.8192 38.5898 30.8983 38.5366 30.9774C38.5366 30.9774 38.5252 31.0057 38.4787 31.0116C38.3516 31.0969 38.271 31.1764 38.1904 31.2559C38.1904 31.2559 38.1833 31.2584 38.152 31.2559C38.0153 31.3556 37.9099 31.4578 37.8045 31.5599C37.8045 31.5599 37.7796 31.5629 37.7633 31.5575C37.7255 31.5808 37.7041 31.6095 37.6827 31.6383C37.6827 31.6383 37.6815 31.6284 37.6504 31.6268C37.4419 31.7566 37.2644 31.8881 37.0868 32.0195C37.0868 32.0195 37.0854 32.0102 37.0525 32.0121C36.7126 32.2014 36.4055 32.3888 36.0984 32.5762Z" fill="white"/>
<path d="M21.5196 8.88128C21.5956 8.88014 21.6716 8.879 21.7986 8.92375C22.278 9.02711 22.7054 9.09507 23.1352 9.14028C25.0667 9.34346 26.9252 9.80536 28.6769 10.6673C29.0629 10.8573 29.4702 11.0037 29.8676 11.1701C29.8676 11.1701 29.8478 11.202 29.8644 11.2171C29.9402 11.248 29.9993 11.2638 30.0584 11.2797C30.0584 11.2797 30.0457 11.2889 30.056 11.3152C30.1404 11.4345 30.2143 11.5275 30.3222 11.6632C30.1675 11.6632 30.071 11.6815 29.9843 11.6602C29.3118 11.4952 28.6471 11.2918 27.9682 11.1621C27.4277 11.0588 26.8708 11.0427 26.3212 10.9879C26.2441 10.9827 26.1671 10.9774 26.0403 10.9232C25.3732 10.7872 24.7578 10.6794 24.1378 10.6198C23.6637 10.5743 23.1838 10.5897 22.7065 10.578C22.6597 10.5795 22.6128 10.5809 22.5169 10.5359C21.8767 10.4342 21.2862 10.3415 20.6943 10.3313C19.315 10.3077 17.9344 10.3033 16.5554 10.3347C16.0592 10.346 15.5658 10.4824 15.0712 10.5617C14.9961 10.5756 14.921 10.5895 14.7759 10.5752C13.3952 10.7047 12.0843 10.8617 10.7737 11.0208C10.5667 11.0459 10.3608 11.0808 10.1544 11.1112C10.1454 11.0691 10.1363 11.0269 10.1273 10.9848C10.1909 10.9519 10.2512 10.908 10.3186 10.8878C11.8058 10.4418 13.2814 9.94815 14.7862 9.57285C15.7334 9.33663 16.7259 9.28622 17.6956 9.13635C18.0627 9.07962 18.4228 8.97765 18.7861 8.8963C18.8921 8.88594 18.9982 8.87557 19.1768 8.89482C20.0061 8.91006 20.7628 8.89567 21.5196 8.88128Z" fill="white"/>
<path d="M11.634 21.9949C11.634 23.0857 11.634 23.0873 10.5794 23.0886C9.13155 23.0904 7.68356 23.0799 6.23586 23.0964C5.87194 23.1005 5.75341 22.9845 5.76881 22.6179C5.7955 21.9828 5.78503 21.3453 5.76587 20.7095C5.75699 20.4146 5.85421 20.3067 6.15294 20.3052C7.79506 20.297 9.43715 20.277 11.0791 20.253C11.4777 20.2472 11.68 20.3797 11.6402 20.8212C11.6067 21.1934 11.6337 21.5711 11.634 21.9949Z" fill="white"/>
<path d="M57.8103 6.42699C59.4668 6.74258 61.0502 7.15905 62.5786 7.76527C56.5032 6.46412 50.3825 6.27662 44.221 6.89534C48.7091 5.8765 53.2198 5.57608 57.8103 6.42699Z" fill="white"/>
<path d="M0.132819 23.8712C0.0714527 23.2775 0.0350449 22.6976 0.0358376 22.1179C0.0359338 22.0469 0.233439 21.919 0.34291 21.9151C0.928034 21.8943 1.51435 21.9104 2.10005 21.9013C2.35615 21.8973 2.43836 22.0108 2.43692 22.2565C2.42927 23.562 2.4253 24.8677 2.43527 26.1732C2.43775 26.4979 2.30476 26.6191 1.99705 26.5938C1.88392 26.5845 1.7679 26.5813 1.65569 26.5953C1.29963 26.6399 1.16864 26.5101 1.18012 26.1327C1.20687 25.2531 1.18865 24.3722 1.16305 23.4639C1.02476 24.1155 0.509755 23.7791 0.132819 23.8712Z" fill="white"/>
<path d="M16.2474 23.2772C16.2434 24.2443 16.2157 25.1747 16.2488 26.103C16.2687 26.664 15.9198 26.5729 15.5793 26.5995C15.188 26.63 15.0393 26.5115 15.0426 26.0897C15.0523 24.8518 15.0172 23.6136 14.9977 22.3755C14.993 22.0735 15.0686 21.8792 15.4368 21.8955C15.9561 21.9184 16.4782 21.9186 16.9973 21.8927C17.3535 21.8749 17.4523 22.0229 17.431 22.3511C17.411 22.6595 17.4341 22.9706 17.4289 23.2803C17.4242 23.5573 17.5287 23.893 17.0308 23.8662C16.6512 23.8457 16.2401 23.9362 16.3348 23.3258C16.3412 23.2844 16.3105 23.2372 16.297 23.1928C16.2811 23.2084 16.2652 23.224 16.2474 23.2772Z" fill="white"/>
<path d="M12.6476 24.7445C12.6473 23.9156 12.6563 23.1355 12.6422 22.3557C12.6363 22.0276 12.7412 21.8848 13.0894 21.8925C14.428 21.9219 14.1624 21.7311 14.1784 22.9546C14.192 23.9973 14.1755 25.0405 14.1979 26.083C14.206 26.4599 14.0889 26.6085 13.6993 26.5984C12.4842 26.567 12.6507 26.7314 12.6463 25.5756C12.6453 25.3149 12.6471 25.0541 12.6476 24.7445Z" fill="white"/>
<path d="M4.70449 23.7632C4.70558 24.595 4.69792 25.3778 4.712 26.1602C4.71768 26.4754 4.60044 26.6 4.28398 26.5927C3.12101 26.5657 3.26007 26.7421 3.25978 25.5937C3.25952 24.5664 3.27381 23.5386 3.24401 22.5121C3.23097 22.0627 3.33472 21.8629 3.83129 21.8856C4.86657 21.9329 4.67837 21.7798 4.70272 22.7848C4.71022 23.0944 4.70427 23.4044 4.70449 23.7632Z" fill="white"/>
<path d="M65.7813 33.1337C65.6462 33.152 65.5484 33.1584 65.4512 33.1537C65.4059 33.1516 65.3616 33.1281 65.2706 33.1C65.2706 32.4189 65.2706 31.7298 65.2706 30.8993C64.9193 31.4489 64.6463 31.8759 64.313 32.3975C64.0204 31.9253 63.781 31.5389 63.5415 31.1524C63.5083 31.1604 63.475 31.1685 63.4418 31.1765C63.4418 31.8287 63.4418 32.4809 63.4418 33.1517C63.2209 33.1517 63.0621 33.1517 62.8681 33.1517C62.8681 32.0588 62.8681 30.972 62.8681 29.8615C63.2082 29.707 63.4389 29.8317 63.6191 30.181C63.8278 30.5854 64.0763 30.9692 64.3434 31.423C64.5753 31.0204 64.8105 30.6719 64.9836 30.2947C65.1573 29.9163 65.3837 29.7243 65.8189 29.8739C65.8189 30.9466 65.8189 32.0319 65.7813 33.1337Z" fill="white"/>
<path d="M36.4996 6.64002C36.0967 6.51481 35.677 6.35965 35.2552 6.21023C33.3807 5.54617 31.4587 5.10949 29.4671 5.02513C28.413 4.98048 27.3568 4.91199 26.3034 4.93641C24.4091 4.98032 22.5169 5.08738 20.672 5.58681C19.0316 6.03085 17.3891 6.46654 15.7487 6.9105C15.6618 6.93401 15.5864 7.00021 15.5165 7.15356C15.6424 7.15356 15.7746 7.17909 15.8933 7.1498C18.1939 6.58223 20.5352 6.46154 22.8912 6.50042C22.9809 6.5019 23.0697 6.55225 23.1732 6.61408C21.4826 6.7279 19.766 6.71028 18.0765 6.91626C16.5906 7.09741 15.1351 7.52906 13.666 7.84928C13.4954 7.88645 13.3237 7.91846 13.1109 7.87086C13.3689 7.75293 13.6242 7.62859 13.8853 7.51803C19.078 5.31911 24.47 4.35578 30.1001 4.92788C32.3116 5.1526 34.4801 5.57303 36.4996 6.64002ZM14.8827 7.23461C14.8499 7.27327 14.8172 7.31193 14.7845 7.3506C14.843 7.35326 14.9015 7.35592 14.9599 7.35858C14.9516 7.31176 14.9432 7.26494 14.8827 7.23461ZM14.4664 7.44872C14.4743 7.43491 14.4822 7.42111 14.4901 7.4073C14.4771 7.41323 14.4642 7.41916 14.4664 7.44872Z" fill="white"/>
<path d="M43.8092 13.6209C44.1668 13.7888 44.5003 13.6629 44.8479 13.4954C47.1682 12.3778 49.5811 11.4988 52.0954 10.9645C53.8631 10.5889 55.6658 10.3664 57.4606 10.1356C58.4871 10.0036 59.5289 9.99245 60.5637 9.92446C60.6363 9.91969 60.7077 9.89478 60.9216 9.84858C60.725 9.78148 60.6614 9.74226 60.5968 9.74029C59.4112 9.70426 58.2255 9.64569 57.0399 9.64718C55.6261 9.64896 54.2124 9.70421 52.7986 9.73286C52.637 9.73613 52.4749 9.71729 52.2802 9.68597C55.9732 9.52142 59.6998 9.35668 63.4086 9.93157C63.4663 9.94052 63.5236 9.95273 63.5675 9.86413C61.0602 10.041 58.5447 10.1414 56.0476 10.4124C52.0697 10.8441 48.2726 11.9696 44.6691 13.7268C44.3622 13.8764 44.0754 14.0183 43.8092 13.6209Z" fill="white"/>
<path d="M48.8633 31.6296C48.9858 31.5257 49.1021 31.4204 49.2296 31.4042C49.4682 31.374 49.7133 31.3955 50.0161 31.3955C50.0161 31.6831 50.0161 31.9551 50.0161 32.2271C50.0161 32.4874 50.0161 32.7476 50.0161 32.9989C49.1049 33.4175 48.0268 33.2753 47.5136 32.6803C47.0456 32.1377 47.0091 31.1456 47.4344 30.5272C47.8809 29.878 48.902 29.6351 49.8716 29.946C49.8716 30.1343 49.8716 30.3213 49.8716 30.4646C49.4539 30.4402 49.0624 30.3578 48.6887 30.4083C47.9538 30.5074 47.5917 31.1107 47.7589 31.8473C47.8991 32.4652 48.6341 32.8984 49.2543 32.6556C49.409 32.5951 49.4483 32.2381 49.5082 32.0949C49.2853 31.7841 48.8424 32.1626 48.8633 31.6296Z" fill="white"/>
<path d="M2.43499 19.2553C2.43584 19.7608 2.42647 20.2184 2.43769 20.6754C2.44398 20.9317 2.33875 21.0216 2.09008 21.0168C1.52017 21.0058 0.949719 21.0027 0.379919 21.0156C0.109526 21.0217 -0.0174935 20.9299 0.00978341 20.6496C0.020807 20.5363 0.0254919 20.4191 0.00951398 20.3071C-0.0456249 19.9204 0.142099 19.8154 0.489723 19.8547C0.663823 19.8744 0.841955 19.8581 1.10825 19.8581C1.10825 19.4648 1.13219 19.1134 1.102 18.7668C1.06674 18.3621 1.1642 18.1648 1.62386 18.183C2.61504 18.2221 2.42093 18.1325 2.43499 19.2553Z" fill="white"/>
<path d="M14.9872 19.5458C14.9868 19.3668 14.9864 19.2364 14.9858 19.1061C14.9816 18.1218 14.9811 18.1297 15.9445 18.181C16.2099 18.1951 16.3329 18.2862 16.3243 18.5586C16.3146 18.8679 16.3356 19.1786 16.3178 19.4871C16.2991 19.8099 16.3915 19.9537 16.7514 19.9475C17.4546 19.9355 17.5197 20.022 17.4107 20.7295C17.3941 20.8371 17.2284 20.999 17.1262 21.0032C16.5099 21.0287 15.8914 21.0287 15.2751 21.0022C15.1762 20.9979 15.0128 20.8244 15.0029 20.7175C14.9683 20.3459 14.9881 19.9692 14.9872 19.5458Z" fill="white"/>
<path d="M12.651 20.7771C12.6467 20.0482 12.6557 19.3636 12.6391 18.6796C12.6309 18.3415 12.7152 18.1747 13.0998 18.1808C14.3971 18.2015 14.1477 18.0725 14.1783 19.2308C14.1907 19.703 14.1705 20.1761 14.186 20.6482C14.1951 20.9247 14.0891 21.031 13.8168 21.0166C13.5414 21.0021 13.2627 21.0321 12.9893 21.0048C12.8725 20.9931 12.7652 20.8856 12.651 20.7771Z" fill="white"/>
<path d="M3.25172 20.4128C3.25138 19.7939 3.2624 19.2217 3.24641 18.6502C3.23732 18.3254 3.33355 18.1843 3.68741 18.1784C4.69782 18.1616 4.69888 18.1471 4.70458 19.1712C4.70739 19.6777 4.72269 20.1855 4.69023 20.6899C4.68281 20.8053 4.51107 20.9905 4.39873 21.0037C4.04728 21.0446 3.68807 21.0187 3.28061 21.0187C3.26968 20.807 3.26072 20.6334 3.25172 20.4128Z" fill="white"/>
<path d="M18.743 8.88805C18.4228 8.97765 18.0627 9.07962 17.6956 9.13635C16.7259 9.28622 15.7334 9.33663 14.7862 9.57285C13.2814 9.94815 11.8058 10.4418 10.3186 10.8878C10.2512 10.908 10.1909 10.9519 10.1273 10.9848C10.1363 11.0269 10.1454 11.0691 10.1544 11.1112C10.3608 11.0808 10.5667 11.0459 10.7737 11.0208C12.0843 10.8617 13.3952 10.7047 14.7377 10.5697C12.2188 10.8242 9.71012 11.2533 7.30017 12.1628C7.05894 12.2538 6.78908 12.2686 6.61633 12.3023C7.48271 11.9193 8.42022 11.4647 9.38783 11.088C10.3865 10.6991 11.4041 10.3501 12.4326 10.0497C13.4454 9.75398 14.4739 9.4959 15.5108 9.30447C16.5641 9.11001 17.6361 9.01715 18.743 8.88805ZM9.83803 11.2643C9.8503 11.2538 9.86457 11.245 9.87427 11.2326C9.88363 11.2206 9.88827 11.2049 9.89498 11.1908C9.7611 11.1908 9.62722 11.1908 9.49333 11.1908C9.49551 11.2232 9.49768 11.2556 9.49986 11.288C9.59321 11.288 9.68656 11.288 9.83803 11.2643Z" fill="white"/>
<path d="M56.0039 32.1307C55.818 31.6772 55.6455 31.2614 55.4431 30.8609C55.2748 30.5278 55.0713 30.2127 54.8662 29.8601C55.2347 29.7205 55.5086 29.7529 55.7025 30.1384C55.8828 30.4968 56.1001 30.8364 56.3289 31.2323C56.5526 30.8682 56.7857 30.5553 56.9469 30.2088C57.1265 29.8227 57.3881 29.7348 57.8006 29.8605C57.2776 30.9077 56.2578 31.7686 56.6507 33.1511C56.3918 33.1511 56.223 33.1511 56.0043 33.1511C56.0043 32.8233 56.0043 32.4992 56.0039 32.1307Z" fill="white"/>
<path d="M25.2132 34.9419C25.2951 35.0132 25.3569 35.1277 25.4035 35.1218C26.6193 34.9669 27.837 34.8209 29.047 34.6273C29.9551 34.482 30.8738 34.3413 31.7506 34.0755C33.0166 33.6917 34.2489 33.1962 35.496 32.7493C35.6468 32.6953 35.7998 32.6473 35.9906 32.5998C34.4623 33.4705 32.7762 34.0243 31.0311 34.3537C29.1444 34.7098 27.2378 34.962 25.3365 35.2362C25.0056 35.2839 24.6581 35.2083 24.3182 35.2076C24.246 35.2074 24.1737 35.2857 24.0956 35.2903C24.4591 35.1698 24.8226 35.0494 25.2132 34.9419Z" fill="white"/>
<path d="M23.4284 6.67356C23.934 6.67145 24.4939 6.60427 25.0219 6.70514C26.4524 6.97842 27.8909 7.25081 29.2836 7.66713C30.0872 7.90734 30.808 8.42569 31.5701 8.85385C29.0825 7.37619 26.3186 6.87043 23.4284 6.67356Z" fill="white"/>
<path d="M29.8495 11.1437C29.4702 11.0037 29.0629 10.8573 28.6769 10.6673C26.9252 9.80536 25.0667 9.34346 23.1352 9.14028C22.7054 9.09507 22.2781 9.02711 21.8346 8.93657C24.6572 9.03393 27.3531 9.67945 29.8495 11.1437Z" fill="white"/>
<path d="M15.1148 10.5704C15.5659 10.4824 16.0592 10.346 16.5554 10.3347C17.9344 10.3033 19.315 10.3077 20.6943 10.3313C21.2862 10.3415 21.8767 10.4342 22.4848 10.5209C20.3454 10.5438 18.1891 10.533 16.0329 10.5289C15.7414 10.5284 15.4498 10.5615 15.1148 10.5704Z" fill="white"/>
<path d="M45.5404 9.85768C44.6815 9.84327 43.778 9.8425 42.8784 9.7835C42.2846 9.74456 41.6836 9.67182 41.1084 9.52541C40.1683 9.28618 39.2436 8.98024 38.5843 8.15669C40.2159 9.53036 42.2445 9.59442 44.2302 9.79497C44.6501 9.83738 45.0749 9.83067 45.5404 9.85768Z" fill="white"/>
<path d="M26.3574 11.0013C26.8708 11.0427 27.4277 11.0588 27.9682 11.1621C28.6471 11.2918 29.3118 11.4952 29.9843 11.6602C30.071 11.6815 30.1675 11.6632 30.3222 11.6632C30.2143 11.5275 30.1404 11.4345 30.0596 11.3081C30.4882 11.5292 30.9237 11.7836 31.3591 12.038C31.3425 12.0503 31.3258 12.0625 31.3092 12.0748C29.6706 11.7214 28.0321 11.368 26.3574 11.0013Z" fill="white"/>
<path d="M38.7828 11.3926C39.2325 11.4462 39.7343 11.4539 40.1969 11.5929C41.4133 11.9584 42.5592 12.4881 43.5662 13.2832C43.6527 13.3514 43.7188 13.4455 43.7967 13.5623C42.3061 12.4831 40.6665 11.7047 38.7828 11.3926Z" fill="white"/>
<path d="M51.8066 9.66806C51.7786 9.72774 51.707 9.82144 51.6331 9.82319C50.1654 9.85796 48.6975 9.88211 47.1962 9.88705C48.6957 9.79688 50.2288 9.72807 51.8066 9.66806Z" fill="white"/>
<path d="M29.7099 33.0033C29.7412 33.0146 29.7435 33.0391 29.7339 33.0453C28.7727 33.6746 27.7715 34.2166 26.5987 34.4653C27.599 33.9801 28.6371 33.494 29.7099 33.0033Z" fill="white"/>
<path d="M22.7465 10.5907C23.1839 10.5897 23.6637 10.5743 24.1378 10.6198C24.7578 10.6794 25.3732 10.7872 26.007 10.9033C24.9444 10.8227 23.8654 10.7131 22.7465 10.5907Z" fill="white"/>
<path d="M36.0508 11.3453C36.0379 11.3002 36.068 11.2322 36.0983 11.2321C36.9052 11.2292 37.7171 11.0226 38.532 11.3174C37.7288 11.3513 36.9114 11.3526 36.0508 11.3453Z" fill="white"/>
<path d="M36.448 30.0647C35.7262 30.274 35.0175 29.9818 34.2888 29.8565C34.0781 29.8202 33.8471 29.9035 33.5903 29.9368C33.6758 29.6529 33.8629 29.6071 34.1728 29.673C34.9118 29.8302 35.6629 29.9299 36.448 30.0647Z" fill="white"/>
<path d="M39.1109 30.3524C38.9333 30.2897 38.7851 30.1461 38.6328 30.1416C38.0615 30.1249 37.4889 30.1536 36.9008 30.133C37.6832 30.0646 38.4816 30.0286 39.3353 29.9901C39.2575 30.1267 39.198 30.231 39.1109 30.3524Z" fill="white"/>
<path d="M32.7565 9.79883C33.438 10.0178 33.8446 10.5721 34.2168 11.2021C33.7375 10.7673 33.2544 10.2973 32.7565 9.79883Z" fill="white"/>
<path d="M21.4804 8.86998C20.7629 8.89567 20.0061 8.91006 19.2163 8.90229C19.9359 8.87298 20.6886 8.86583 21.4804 8.86998Z" fill="white"/>
<path d="M37.9743 7.61368C37.5009 7.3384 37.0126 7.03477 36.5177 6.6969C36.9938 6.97022 37.4766 7.27778 37.9743 7.61368Z" fill="white"/>
<path d="M34.2215 11.258C34.7192 11.2613 35.2278 11.2949 35.7678 11.3495C35.5181 11.4242 35.226 11.4466 34.9584 11.5398C34.6289 11.6545 34.4074 11.5668 34.2215 11.258Z" fill="white"/>
<path d="M31.1504 32.0749C30.7475 32.3691 30.3114 32.6718 29.8377 32.9722C30.2392 32.6743 30.6782 32.3789 31.1504 32.0749Z" fill="white"/>
<path d="M31.5868 8.91282C31.9605 9.15795 32.3513 9.42996 32.7438 9.73698C32.365 9.49455 31.9844 9.21713 31.5868 8.91282Z" fill="white"/>
<path d="M36.1329 32.5734C36.4055 32.3888 36.7126 32.2014 37.0565 32.0147C36.7846 32.2005 36.4759 32.3855 36.1329 32.5734Z" fill="white"/>
<path d="M31.9647 31.4327C31.7476 31.643 31.499 31.8637 31.2149 32.0768C31.4307 31.8605 31.682 31.6517 31.9647 31.4327Z" fill="white"/>
<path d="M37.1206 32.0155C37.2643 31.8881 37.4419 31.7566 37.6549 31.6289C37.5118 31.7589 37.3331 31.8852 37.1206 32.0155Z" fill="white"/>
<path d="M32.6482 30.8387C32.5284 30.9819 32.3782 31.1354 32.194 31.2933C32.3126 31.1481 32.4652 30.9986 32.6482 30.8387Z" fill="white"/>
<path d="M38.4657 8.00799C38.3512 7.95713 38.2232 7.87806 38.0969 7.76299C38.2165 7.81126 38.3343 7.89552 38.4657 8.00799Z" fill="white"/>
<path d="M38.7866 30.7352C38.8403 30.6211 38.9238 30.4961 39.0427 30.372C38.9908 30.49 38.9036 30.6071 38.7866 30.7352Z" fill="white"/>
<path d="M38.2186 31.2491C38.2711 31.1764 38.3517 31.0969 38.4638 31.0142C38.4124 31.0881 38.3295 31.1652 38.2186 31.2491Z" fill="white"/>
<path d="M37.834 31.5493C37.9098 31.4578 38.0152 31.3556 38.1544 31.253C38.08 31.348 37.9718 31.4434 37.834 31.5493Z" fill="white"/>
<path d="M33.2394 30.2545C33.2103 30.3292 33.1529 30.4141 33.0621 30.4988C33.0895 30.4207 33.1503 30.3426 33.2394 30.2545Z" fill="white"/>
<path d="M38.5621 30.9666C38.5898 30.8983 38.643 30.8192 38.7282 30.7414C38.7026 30.8137 38.6451 30.8847 38.5621 30.9666Z" fill="white"/>
<path d="M32.8507 30.6486C32.8321 30.7006 32.7861 30.7608 32.7095 30.8246C32.7271 30.771 32.7752 30.7139 32.8507 30.6486Z" fill="white"/>
<path d="M33.0089 30.5002C33.0043 30.5366 32.9736 30.5818 32.913 30.6315C32.9163 30.5936 32.9496 30.5513 33.0089 30.5002Z" fill="white"/>
<path d="M30.0427 11.2548C29.9993 11.2638 29.9402 11.248 29.873 11.2004C29.9189 11.189 29.973 11.2094 30.0427 11.2548Z" fill="white"/>
<path d="M33.53 29.9509C33.529 29.9932 33.5025 30.0451 33.4446 30.0957C33.4436 30.0497 33.474 30.0051 33.53 29.9509Z" fill="white"/>
<path d="M32.1412 31.2934C32.1325 31.3292 32.0961 31.3711 32.0298 31.4161C32.0378 31.3794 32.0757 31.3394 32.1412 31.2934Z" fill="white"/>
<path d="M33.3875 30.1054C33.3848 30.1408 33.3579 30.187 33.3007 30.2373C33.3014 30.1998 33.3323 30.158 33.3875 30.1054Z" fill="white"/>
<path d="M31.4553 12.236C31.4535 12.2358 31.4572 12.2363 31.4553 12.236V12.236Z" fill="white"/>
<path d="M37.7083 31.634C37.7041 31.6095 37.7256 31.5808 37.7754 31.5545C37.7805 31.5813 37.7573 31.6054 37.7083 31.634Z" fill="white"/>
<path d="M38.0863 7.70478C38.0638 7.71714 38.0301 7.70666 37.9908 7.66821C38.0151 7.65415 38.0451 7.66805 38.0863 7.70478Z" fill="white"/>
<path d="M38.5751 8.1C38.5525 8.11158 38.519 8.09979 38.4795 8.06018C38.5037 8.04711 38.534 8.06187 38.5751 8.1Z" fill="white"/>
<path d="M14.9087 7.22636C14.9432 7.26494 14.9516 7.31176 14.9599 7.35858C14.9015 7.35592 14.843 7.35326 14.7845 7.3506C14.8172 7.31193 14.85 7.27327 14.9087 7.22636Z" fill="white"/>
<path d="M14.4587 7.4369C14.4641 7.41916 14.4771 7.41323 14.4901 7.4073C14.4822 7.42111 14.4743 7.43491 14.4587 7.4369Z" fill="white"/>
<path d="M9.80904 11.2761C9.68663 11.288 9.59321 11.288 9.49986 11.288C9.49768 11.2556 9.49551 11.2232 9.49333 11.1908C9.62722 11.1908 9.7611 11.1908 9.89498 11.1908C9.88827 11.2049 9.88363 11.2206 9.87427 11.2326C9.86457 11.245 9.85037 11.2538 9.80904 11.2761Z" fill="white"/>
<path d="M30.5761 11.7483C30.5721 11.7504 30.5802 11.7462 30.5761 11.7483V11.7483Z" fill="white"/>
</svg>
