<svg width="19" height="19" viewBox="0 0 19 19" fill="none" xmlns="http://www.w3.org/2000/svg">
<g clip-path="url(#clip0_282_3483)">
<mask id="mask0_282_3483" style="mask-type:luminance" maskUnits="userSpaceOnUse" x="-1" y="0" width="20" height="19">
<path d="M18.999 0H-0.000941038V19H18.999V0Z" fill="white"/>
</mask>
<g mask="url(#mask0_282_3483)">
<path d="M17.0539 5.6242C17.065 5.79122 17.065 5.95907 17.065 6.12769C17.065 11.2791 13.1431 17.2189 5.97377 17.2189V17.2158C3.85606 17.2189 1.78189 16.6125 -0.000941038 15.4686C0.307017 15.5058 0.616558 15.524 0.926893 15.5248C2.68281 15.5263 4.38805 14.9373 5.76793 13.8528C4.0999 13.8211 2.63689 12.7333 2.12627 11.1453C2.71052 11.2577 3.31218 11.2347 3.88615 11.0788C2.06689 10.7114 0.759058 9.11307 0.759058 7.25741C0.759058 7.24079 0.759058 7.22416 0.759058 7.20832C1.30135 7.51072 1.90777 7.67779 2.52843 7.69597C0.815268 6.55204 0.286434 4.2736 1.32114 2.49236C3.30031 4.92754 6.22077 6.40794 9.35496 6.56547C9.04068 5.21173 9.47055 3.79307 10.4823 2.84069C12.0522 1.36424 14.5214 1.44024 15.9978 3.01011C16.871 2.83832 17.7078 2.51769 18.4734 2.06407C18.182 2.96657 17.5733 3.73292 16.7594 4.22057C17.5329 4.12795 18.2873 3.92132 18.999 3.60624C18.4758 4.3892 17.8171 5.07242 17.0539 5.6242Z" fill="white"/>
</g>
</g>
<defs>
<clipPath id="clip0_282_3483">
<rect width="18.5619" height="18.5619" fill="white" transform="scale(1.0236)"/>
</clipPath>
</defs>
</svg>
